<?xml version="1.0"?>
<svg width="50" height="50" xmlns="http://www.w3.org/2000/svg" xmlns:svg="http://www.w3.org/2000/svg" version="1.1">
 <g class="layer">
  <title>Layer 1</title>
  <path d="m-4.15,39c0,-1.09 0,-2.17 0,-3.3c0,-2.3 0.02,-4.61 0.05,-6.91c0.03,-3.52 0.03,-7.04 0.02,-10.58c0.02,-2.23 0.02,-4.46 0.03,-6.7c0,-1.06 0,-2.11 0,-3.19c0.08,-5.07 0.18,-7.55 3.84,-11.86c4.92,-0.48 4.92,-0.48 11.16,-0.47c1.65,0 1.65,0 3.34,0c2.32,0 4.64,0.01 6.96,0.03c3.57,0.04 7.12,0.03 10.68,0.03c17.45,0.05 17.45,0.05 21.25,3.04c0.37,3.81 0.52,7.48 0.5,11.29c0.02,1.68 0.02,1.68 0.03,3.39c0,2.38 0,4.75 0,7.12c0,3.63 0.03,7.27 0.07,10.89c0.02,2.3 0.02,4.61 0.02,6.91c0.02,1.09 0.02,2.17 0.03,3.3c-0.07,7.58 -0.07,7.58 -2.89,10.41c-4.27,2.59 -7.99,2.19 -13.29,2.2c-2.07,0 -4.14,0.01 -6.27,0.01c-2.15,-0.01 -4.32,-0.03 -6.56,-0.04c-2.15,0.01 -4.32,0.03 -6.56,0.04c-2.07,0 -4.14,-0.01 -6.25,-0.01c-1.9,0 -3.8,-0.01 -5.75,-0.01c-11.46,-1.22 -10.51,-7.93 -10.39,-15.57zm15.61,1.96c0.97,-0.38 1.93,-0.76 2.92,-1.14c3.49,-1.37 6.96,-2.74 10.42,-4.1c2.75,1.73 5.5,3.46 8.34,5.24c0,-1.3 0,-2.59 0,-3.93c-4.9,-2.89 -4.9,-2.89 -10.01,-5.24c-1.95,1.28 -3.89,2.57 -5.84,3.85c-1.62,1.07 -1.62,1.07 -3.29,2.16c-0.83,0.62 -1.68,1.22 -2.55,1.85c0,0.43 0,0.86 0,1.31zm28.36,-10.47c0.55,0 1.1,0 1.67,0c0,-5.18 0,-10.37 0,-15.71c-0.55,0 -1.1,0 -1.67,0c0,5.18 0,10.37 0,15.71z" fill="#E1C99F" filter="url(#svg_1_blur)" id="svg_1"/>
 </g>
 <defs>
  <filter id="svg_1_blur">
   <feGaussianBlur in="SourceGraphic" stdDeviation="1"/>
  </filter>
 </defs>
</svg>