<?xml version="1.0"?>
<svg width="50" height="50" xmlns="http://www.w3.org/2000/svg" xmlns:svg="http://www.w3.org/2000/svg" xmlns:xlink="http://www.w3.org/1999/xlink" version="1.1">
 <g class="layer">
  <title>Layer 1</title>
  <path d="m3.35,35.14c0,-0.8 0,-1.6 0,-2.43c0,-1.7 0.01,-3.39 0.04,-5.09c0.02,-2.59 0.02,-5.18 0.01,-7.78c0.01,-1.64 0.01,-3.28 0.02,-4.93c0,-0.78 0,-1.55 0,-2.35c0.06,-3.73 0.14,-5.56 2.84,-8.73c3.65,-0.36 3.65,-0.36 8.27,-0.35c1.22,0 1.22,0 2.47,0c1.72,0 3.44,0.01 5.15,0.02c2.65,0.03 5.28,0.02 7.91,0.02c12.93,0.04 12.93,0.04 15.75,2.23c0.27,2.8 0.38,5.5 0.37,8.3c0.01,1.23 0.01,1.23 0.02,2.49c0,1.75 0,3.5 0,5.24c0,2.67 0.02,5.35 0.05,8.01c0.01,1.7 0.01,3.39 0.01,5.09c0.01,0.8 0.01,1.6 0.02,2.43c-0.05,5.58 -0.05,5.58 -2.14,7.66c-3.16,1.91 -5.92,1.61 -9.85,1.62c-1.53,0 -3.07,0.01 -4.65,0.01c-1.59,-0.01 -3.2,-0.02 -4.86,-0.03c-1.59,0.01 -3.2,0.02 -4.86,0.03c-1.53,0 -3.07,-0.01 -4.64,-0.01c-1.41,0 -2.82,-0.01 -4.26,-0.01c-8.49,-0.9 -7.79,-5.84 -7.7,-11.45zm11.57,1.44c0.72,-0.28 1.43,-0.56 2.16,-0.84c2.58,-1.01 5.15,-2.01 7.73,-3.02c2.04,1.27 4.08,2.54 6.18,3.85c0,-0.95 0,-1.91 0,-2.89c-3.63,-2.13 -3.63,-2.13 -7.42,-3.85c-1.45,0.94 -2.88,1.89 -4.33,2.83c-1.2,0.79 -1.2,0.79 -2.44,1.59c-0.62,0.45 -1.25,0.9 -1.89,1.36c0,0.32 0,0.64 0,0.96zm21.01,-7.71c0.41,0 0.82,0 1.24,0c0,-3.81 0,-7.63 0,-11.56c-0.41,0 -0.82,0 -1.24,0c0,3.81 0,7.63 0,11.56z" fill="#E1C99F" filter="url(#svg_1_blur)" id="svg_1"/>
  <image height="0" id="svg_9" transform="rotate(-53.5556 28.2218 18.63)" width="0" x="28.22" xlink:href="./images/logo.svg" y="18.63"/>
 </g>
 <defs>
  <filter id="svg_1_blur">
   <feGaussianBlur in="SourceGraphic" stdDeviation="1"/>
  </filter>
 </defs>
</svg>